# Blender v2.79 (sub 0) OBJ File: 'board.blend'
# www.blender.org
mtllib board.mtl
o Cube
v 7.468096 -0.121049 -7.468095
v 7.468096 -0.121049 7.468096
v -7.468097 -0.121049 7.468094
v -7.468093 -0.121049 -7.468099
v 7.468099 0.121049 -7.468092
v 7.468091 0.121049 7.468100
v -7.468099 0.121049 7.468093
v -7.468095 0.121049 -7.468096
vn 0.0000 -1.0000 0.0000
vn 0.0000 1.0000 0.0000
vn 1.0000 -0.0000 0.0000
vn -0.0000 -0.0000 1.0000
vn -1.0000 -0.0000 -0.0000
vn 0.0000 0.0000 -1.0000
usemtl Material
s off
f 2//1 4//1 1//1
f 8//2 6//2 5//2
f 5//3 2//3 1//3
f 6//4 3//4 2//4
f 3//5 8//5 4//5
f 1//6 8//6 5//6
f 2//1 3//1 4//1
f 8//2 7//2 6//2
f 5//3 6//3 2//3
f 6//4 7//4 3//4
f 3//5 7//5 8//5
f 1//6 4//6 8//6
